# xmcd
#
# Track frame offsets:
#	150
#	11215
#	22337
#	32987
#	51067
#	75585
#	86760
#	99575
#	125357
#	136105
#	146695
#	155870
#
# Disc length: 2224 seconds
#
# Revision: 3
# Processed by: cddbd v1.5.2PL0 Copyright (c) Steve Scherf et al.
# Submitted via: audiograbber 1.83.01
#
DISCID=a408ae0c
DTITLE=Nightcaps - Wine, Wine, Wine
DYEAR=1900
DGENRE=Oldies
TTITLE0=Wine, Wine, Wine
TTITLE1=Nightcap Rock
TTITLE2=24 Hours
TTITLE3=I Got My Mojo Working
TTITLE4=Tough That's All
TTITLE5=Thunderbird
TTITLE6=Ole Jose
TTITLE7=Sweet Little Angel
TTITLE8=No Parking
TTITLE9=Mojo Man
TTITLE10=I've Got The Blues
TTITLE11=Next Time You See Me
EXTD=
EXTT0=
EXTT1=
EXTT2=
EXTT3=
EXTT4=
EXTT5=
EXTT6=
EXTT7=
EXTT8=
EXTT9=
EXTT10=
EXTT11=
PLAYORDER=
